<?xml version="1.0" encoding="UTF-8"?>
<svg width="75px" height="75px" viewBox="0 0 75 75" version="1.1" xmlns="http://www.w3.org/2000/svg" xmlns:xlink="http://www.w3.org/1999/xlink">
    <title>tnt</title>
    <g id="Page-1" stroke="none" stroke-width="1" fill="none" fill-rule="evenodd">
        <g id="tnt">
            <rect id="grass" fill="#DB1D1D" x="0" y="0" width="75" height="75"></rect>
            <rect id="Rectangle-Copy-14" fill="#B00202" x="29.25" y="0" width="1.5" height="75"></rect>
            <rect id="Rectangle-Copy-26" fill="#B00202" x="63" y="0" width="1.5" height="75"></rect>
            <rect id="Rectangle-Copy-24" fill="#B00202" x="18" y="0" width="1.5" height="75"></rect>
            <rect id="Rectangle-Copy-27" fill="#B00202" x="51.75" y="0" width="1.5" height="75"></rect>
            <rect id="Rectangle-Copy-25" fill="#B00202" x="6.75" y="0" width="1.5" height="75"></rect>
            <rect id="Rectangle-Copy-28" fill="#B00202" x="40.5" y="0" width="1.5" height="75"></rect>
            <rect id="Rectangle" fill="#D8D8D8" x="0" y="23.25" width="75" height="30"></rect>
            <g id="Group-2" transform="translate(45.750000, 30.750000)" fill="#C71313">
                <rect id="Rectangle" x="0" y="0" width="4.5" height="4.5"></rect>
                <rect id="Rectangle-Copy-18" x="4.5" y="4.5" width="4.5" height="4.5"></rect>
                <rect id="Rectangle-Copy-19" x="4.5" y="9" width="4.5" height="4.5"></rect>
                <rect id="Rectangle-Copy-13" x="4.5" y="0" width="4.5" height="4.5"></rect>
                <rect id="Rectangle-Copy-14" x="9" y="0" width="4.5" height="4.5"></rect>
            </g>
            <g id="Group-2" transform="translate(15.750000, 30.750000)" fill="#C71313">
                <rect id="Rectangle" x="0" y="0" width="4.5" height="4.5"></rect>
                <rect id="Rectangle-Copy-18" x="4.5" y="4.5" width="4.5" height="4.5"></rect>
                <rect id="Rectangle-Copy-19" x="4.5" y="9" width="4.5" height="4.5"></rect>
                <rect id="Rectangle-Copy-13" x="4.5" y="0" width="4.5" height="4.5"></rect>
                <rect id="Rectangle-Copy-14" x="9" y="0" width="4.5" height="4.5"></rect>
            </g>
            <g id="Group-3" transform="translate(30.750000, 30.750000)" fill="#C71313">
                <rect id="Rectangle" x="0" y="0" width="4.5" height="4.5"></rect>
                <rect id="Rectangle-Copy-17" x="9" y="9" width="4.5" height="4.5"></rect>
                <rect id="Rectangle-Copy-20" x="9" y="4.5" width="4.5" height="4.5"></rect>
                <rect id="Rectangle-Copy-21" x="9" y="0" width="4.5" height="4.5"></rect>
                <rect id="Rectangle-Copy-22" x="2.25" y="2.25" width="4.5" height="4.5"></rect>
                <rect id="Rectangle-Copy-23" x="6.75" y="6" width="4.5" height="4.5"></rect>
                <rect id="Rectangle-Copy-15" x="0" y="4.5" width="4.5" height="4.5"></rect>
                <rect id="Rectangle-Copy-16" x="0" y="9" width="4.5" height="4.5"></rect>
            </g>
        </g>
    </g>
</svg>